<svg width="54" height="14" viewBox="0 0 54 14" fill="none" xmlns="http://www.w3.org/2000/svg">
<path d="M10.335 0.368497C10.5567 0.368497 10.7375 0.44433 10.8775 0.595996C11.0292 0.735996 11.105 0.91683 11.105 1.1385C11.105 1.3485 11.0292 1.52933 10.8775 1.681C10.7375 1.83266 10.5567 1.9085 10.335 1.9085H6.5725V12.4085C6.5725 12.6302 6.49667 12.8168 6.345 12.9685C6.205 13.1085 6.02417 13.1785 5.8025 13.1785C5.5925 13.1785 5.41167 13.1085 5.26 12.9685C5.10833 12.8168 5.0325 12.6302 5.0325 12.4085V1.9085H1.27C1.06 1.9085 0.879167 1.83266 0.7275 1.681C0.575833 1.52933 0.5 1.3485 0.5 1.1385C0.5 0.91683 0.575833 0.735996 0.7275 0.595996C0.879167 0.44433 1.06 0.368497 1.27 0.368497H10.335Z" fill="#1F2041"/>
<path d="M16.9076 0.368497C17.7943 0.368497 18.6285 0.537663 19.4101 0.875996C20.2034 1.21433 20.8918 1.67516 21.4751 2.2585C22.0701 2.84183 22.5368 3.53016 22.8751 4.3235C23.2134 5.10516 23.3826 5.93933 23.3826 6.826C23.3826 7.86433 23.1609 8.821 22.7176 9.696C22.2743 10.571 21.6735 11.306 20.9151 11.901C20.9151 11.901 20.9035 11.9127 20.8801 11.936C20.3201 12.356 19.7076 12.6885 19.0426 12.9335C18.3776 13.1668 17.6659 13.2835 16.9076 13.2835C16.0209 13.2835 15.1868 13.1143 14.4051 12.776C13.6234 12.4377 12.9351 11.9768 12.3401 11.3935C11.7568 10.8102 11.2959 10.1277 10.9576 9.346C10.6193 8.56433 10.4501 7.72433 10.4501 6.826C10.4501 5.846 10.6484 4.94183 11.0451 4.1135C11.4418 3.2735 11.9843 2.556 12.6726 1.961L12.7426 1.891C12.7543 1.891 12.7718 1.87933 12.7951 1.856C13.3551 1.38933 13.9851 1.02766 14.6851 0.770997C15.3851 0.502663 16.1259 0.368497 16.9076 0.368497ZM16.9076 11.7435C17.3509 11.7435 17.771 11.691 18.1676 11.586C18.576 11.4693 18.9609 11.3118 19.3226 11.1135L13.1801 3.641C12.8068 4.07266 12.5151 4.56266 12.3051 5.111C12.0951 5.64766 11.9901 6.21933 11.9901 6.826C11.9901 7.50266 12.1185 8.1385 12.3751 8.7335C12.6318 9.3285 12.9818 9.8535 13.4251 10.3085C13.8801 10.7518 14.4051 11.1018 15.0001 11.3585C15.5951 11.6152 16.2309 11.7435 16.9076 11.7435ZM20.5301 10.151C20.9384 9.70766 21.2535 9.206 21.4751 8.646C21.7085 8.07433 21.8251 7.46766 21.8251 6.826C21.8251 6.14933 21.6968 5.5135 21.4401 4.9185C21.1834 4.3235 20.8276 3.80433 20.3726 3.361C19.9293 2.906 19.4101 2.55016 18.8151 2.2935C18.2201 2.03683 17.5843 1.9085 16.9076 1.9085C16.4409 1.9085 15.9918 1.97266 15.5601 2.101C15.1284 2.21766 14.7259 2.39266 14.3526 2.626L20.5301 10.151Z" fill="#1F2041"/>
<path d="M30.351 7.631C30.1177 7.631 29.9194 7.53766 29.756 7.351L25.2585 1.576C25.1302 1.41266 25.0777 1.23183 25.101 1.0335C25.1244 0.823496 25.2177 0.65433 25.381 0.525997C25.5444 0.397663 25.7252 0.350996 25.9235 0.385996C26.1335 0.409329 26.3027 0.502663 26.431 0.665996L30.351 5.671L34.1835 0.753496C34.3119 0.590163 34.4752 0.496829 34.6735 0.473496C34.8835 0.450163 35.0702 0.502663 35.2335 0.630996C35.3969 0.759329 35.4902 0.928496 35.5135 1.1385C35.5369 1.33683 35.4844 1.51766 35.356 1.681L30.946 7.351C30.7944 7.53766 30.596 7.631 30.351 7.631ZM35.2685 13.266C35.2219 13.266 35.146 13.2602 35.041 13.2485C34.9477 13.2368 34.8369 13.2077 34.7085 13.161C34.5802 13.1027 34.4402 13.0268 34.2885 12.9335C34.1485 12.8285 34.0085 12.6885 33.8685 12.5135L30.351 7.981L26.5185 12.916C26.3902 13.0793 26.221 13.1727 26.011 13.196C25.8127 13.2193 25.6319 13.1668 25.4685 13.0385C25.3052 12.9102 25.2119 12.7468 25.1885 12.5485C25.1652 12.3385 25.2177 12.1518 25.346 11.9885L29.756 6.3185C29.896 6.13183 30.0885 6.0385 30.3335 6.0385C30.5902 6.0385 30.7944 6.13183 30.946 6.3185L35.041 11.5685C35.0994 11.6502 35.1519 11.7027 35.1985 11.726C35.2452 11.7493 35.2802 11.7668 35.3035 11.7785C35.5019 11.7785 35.6652 11.8485 35.7935 11.9885C35.9335 12.1168 36.0094 12.2802 36.021 12.4785C36.0444 12.6885 35.986 12.8693 35.846 13.021C35.706 13.1727 35.531 13.2543 35.321 13.266H35.2685Z" fill="#1F2041"/>
<path d="M39.7343 13.266C39.5126 13.266 39.326 13.1902 39.1743 13.0385C39.0226 12.8868 38.9468 12.7002 38.9468 12.4785V1.1035C38.9468 0.893497 39.0226 0.712663 39.1743 0.560996C39.326 0.40933 39.5126 0.333496 39.7343 0.333496C39.9443 0.333496 40.1251 0.40933 40.2768 0.560996C40.4285 0.712663 40.5043 0.893497 40.5043 1.1035V12.4785C40.5043 12.7002 40.4285 12.8868 40.2768 13.0385C40.1251 13.1902 39.9443 13.266 39.7343 13.266Z" fill="#1F2041"/>
<path d="M52.9377 13.231C52.681 13.231 52.4827 13.1318 52.3427 12.9335L45.0452 3.3435V12.4785C45.0452 12.6885 44.9693 12.8693 44.8177 13.021C44.6777 13.161 44.5027 13.231 44.2927 13.231C44.0943 13.231 43.9193 13.161 43.7677 13.021C43.616 12.8693 43.5402 12.6885 43.5402 12.4785V1.121C43.5402 0.957663 43.5868 0.81183 43.6802 0.683497C43.7735 0.555163 43.9018 0.467663 44.0652 0.420996C44.2168 0.362663 44.3685 0.356829 44.5202 0.403496C44.6718 0.450163 44.8002 0.537663 44.9052 0.665996L52.1852 10.2735V1.121C52.1852 0.922663 52.2552 0.747663 52.3952 0.595996C52.5468 0.44433 52.7277 0.368497 52.9377 0.368497C53.1477 0.368497 53.3227 0.44433 53.4627 0.595996C53.6143 0.747663 53.6902 0.922663 53.6902 1.121V12.4785C53.6902 12.6418 53.6435 12.7877 53.5502 12.916C53.4568 13.0443 53.3343 13.1377 53.1827 13.196C53.066 13.2193 52.9843 13.231 52.9377 13.231Z" fill="#1F2041"/>
</svg>
