<svg xmlns="http://www.w3.org/2000/svg" width="22" height="22" fill="none"><path fill="url(#paint0_linear)" d="M11 6.03a5.4 5.4 0 00-5.4 5.4c0 .96.24 1.87.71 2.71.5.82 1.16 1.47 1.97 1.97a5.5 5.5 0 005.4 0A5.4 5.4 0 0011 6.03zm0 8.91c-.97 0-1.8-.34-2.48-1.03a3.39 3.39 0 01-1.04-2.49c0-.96.35-1.8 1.04-2.48A3.39 3.39 0 0111 7.91c.97 0 1.8.34 2.48 1.03a3.39 3.39 0 011.04 2.48c0 .97-.35 1.8-1.04 2.49A3.39 3.39 0 0111 14.94zm6.9-9.14a1.4 1.4 0 01-.43.89c-.22.25-.5.37-.84.37-.35 0-.65-.12-.9-.37a1.22 1.22 0 01-.37-.9c0-.33.12-.63.37-.88s.55-.38.9-.38c.34 0 .64.13.89.38s.37.55.37.89zm3.55 1.26c-.06-.9-.2-1.68-.42-2.34a5.13 5.13 0 00-1.31-2.01 5.13 5.13 0 00-2.02-1.32 8.36 8.36 0 00-2.34-.37c-.88-.06-2.33-.1-4.36-.1-2.03 0-3.5.04-4.4.1a8.2 8.2 0 00-2.3.37A5.54 5.54 0 00.97 4.72a9.54 9.54 0 00-.42 2.34C.52 7.94.5 9.4.5 11.42c0 2.04.02 3.5.05 4.41.06.88.2 1.64.42 2.3.28.78.7 1.47 1.26 2.06.6.56 1.29.97 2.07 1.22.65.25 1.42.39 2.3.42.9.06 2.37.1 4.4.1 2.03 0 3.48-.04 4.36-.1.9-.03 1.69-.16 2.34-.37a5.4 5.4 0 003.33-3.33 8.2 8.2 0 00.38-2.3 139.13 139.13 0 00.05-8.77zM19.2 17.61a3.55 3.55 0 01-2.01 2.02 9.4 9.4 0 01-2.53.37c-.66.03-1.63.05-2.91.05h-1.5a68.3 68.3 0 01-2.9-.05c-1.16-.06-2-.19-2.54-.37A3.55 3.55 0 012.8 17.6a9.87 9.87 0 01-.38-2.53c-.03-.69-.04-1.66-.04-2.9v-1.5c0-1.26.01-2.22.04-2.91a9.4 9.4 0 01.38-2.53A3.38 3.38 0 014.8 3.22a9.87 9.87 0 012.53-.37 68.4 68.4 0 012.91-.05h1.5c1.25 0 2.22.01 2.9.05a9.4 9.4 0 012.54.37 3.38 3.38 0 012.01 2.02c.2.5.32 1.34.38 2.53.03.65.05 1.62.05 2.9v1.5c0 1.25-.02 2.22-.05 2.91-.06 1.16-.19 2-.38 2.53z"/><defs><linearGradient id="paint0_linear" x1="11" x2="11" y1="-.576" y2="23.208" gradientUnits="userSpaceOnUse"><stop stop-color="#BC9CFF"/><stop offset="1" stop-color="#8BA4F9"/></linearGradient></defs></svg>